<?xml version="1.0" encoding="utf-8"?>
<!-- Generator: Adobe Illustrator 18.1.1, SVG Export Plug-In . SVG Version: 6.00 Build 0)  -->
<svg version="1.1" id="Layer_1" xmlns="http://www.w3.org/2000/svg" xmlns:xlink="http://www.w3.org/1999/xlink" x="0px" y="0px"
	 viewBox="-41 43 16 16" enable-background="new -41 43 16 16" xml:space="preserve">
<path d="M-33.7,43.7c-0.1,0-0.3,0.1-0.3,0.2l-6.2,12.4c-0.1,0.1-0.1,0.3-0.1,0.4v1.4c0,0.1,0.1,0.2,0.2,0.2h14.2
	c0.1,0,0.2-0.1,0.2-0.2v-1.4c0-0.1-0.1-0.3-0.1-0.4L-32,43.9c-0.1-0.1-0.2-0.2-0.3-0.2C-32.3,43.7-33.7,43.7-33.7,43.7z M-33.9,48.3
	h1.8v3.7l-0.9,0.9l-0.9-0.9V48.3z M-33,54.7c0.5,0,0.9,0.4,0.9,0.9c0,0.5-0.4,0.9-0.9,0.9s-0.9-0.4-0.9-0.9
	C-33.9,55.1-33.5,54.7-33,54.7z"/>
</svg>
