<?xml version="1.0" encoding="utf-8"?>
<!-- Generator: Adobe Illustrator 18.1.1, SVG Export Plug-In . SVG Version: 6.00 Build 0)  -->
<svg version="1.1" id="Layer_1" xmlns="http://www.w3.org/2000/svg" xmlns:xlink="http://www.w3.org/1999/xlink" x="0px" y="0px"
	 viewBox="61.2 67 506.6 506.6" enable-background="new 61.2 67 506.6 506.6" xml:space="preserve">
<g>
	<path d="M567.8,570.4H61.2v-6.1C61.2,469.4,74.3,417,101,404c7-3.4,15.9-8.5,26.3-14.5c29.6-17,73.3-42.1,122.1-54.8
		c-31.9-30-53.4-82.8-53.4-133.2c0-76.1,49.8-131.2,118.4-131.2S432.9,126,432.9,202.8c0,49.8-20.6,100.6-52.2,130.8
		c66.3,15.2,122.9,51.2,147.8,67c35.7,22.7,38.9,149.3,39.2,163.6L567.8,570.4z"/>
</g>
</svg>
