<?xml version="1.0" encoding="utf-8"?>
<!-- Generator: Adobe Illustrator 18.1.1, SVG Export Plug-In . SVG Version: 6.00 Build 0)  -->
<svg version="1.1" id="Layer_1" xmlns="http://www.w3.org/2000/svg" xmlns:xlink="http://www.w3.org/1999/xlink" x="0px" y="0px"
	 viewBox="-185.5 541 482.2 419.8" enable-background="new -185.5 541 482.2 419.8" xml:space="preserve">
<path d="M209.5,609.6c12.9,0,22.6-2.4,30-6.7c3.1-7.3,4.9-19.6,4.9-27.5s-1.8-20.2-4.9-27.5c-7.3-4.3-16.5-6.7-28.8-6.7
	s-22,2.4-30,6.7c-3.1,7.3-4.9,19.6-4.9,27.5s1.8,20.2,4.9,27.5C186.9,607.7,196.7,609.6,209.5,609.6z"/>
<path d="M289.1,631.6c-6.7-7.3-16.5-11.6-28.8-11.6h-3.1h-3.7h-6.7h-73.4h-6.7H163h-3.1c-12.2,0-21.4,3.7-28.8,11.6
	c-6.7,7.3-10.4,17.7-10.4,30.6v4.9v5.5V762v1.2c0,7.3,1.2,12.2,3.7,15.3c2.4,3.1,7.3,4.3,13.5,4.3H152V762l0,0v-17.7v-11v-60h10.4
	v115.1l0,0v109.5V915v33.7c0,3.7,1.2,6.7,3.1,9.2c2.4,2.4,4.9,3.1,8.6,3.1h8.6h8.6c3.7,0,6.7-1.2,8.6-3.1c2.4-2.4,3.1-5.5,3.1-9.2
	V915v-17.1V788.3h10.4v109.5V915v33.7c0,3.7,1.2,6.7,3.1,9.2c2.4,2.4,4.9,3.1,8.6,3.1h8.6h8.6c3.7,0,6.7-1.2,8.6-3.1
	c2.4-2.4,3.1-5.5,3.1-9.2V915v-17.1V788.3v-15.9v-99.8H264v60v11v17.7l0,0v20.8h14.1c6.1,0,11-1.2,13.5-4.3s3.7-8,3.7-15.3v-1.2V672
	v-5.5v-4.9C298.9,649.4,295.8,639,289.1,631.6z"/>
<path d="M-89.1,609.6c12.9,0,22.6-2.4,30-6.7c3.1-7.3,4.9-19.6,4.9-27.5s-1.8-20.2-4.9-27.5c-7.3-4.3-16.5-6.7-28.8-6.7
	s-22,2.4-30,6.7c-3.1,7.3-4.9,19.6-4.9,27.5s1.8,20.2,4.9,27.5C-111.8,607.7-102,609.6-89.1,609.6z"/>
<path d="M8.8,743.6V743L-20,646.3l0,0c-1.8-5.5-4.3-10.4-8-14.7c-6.7-7.3-16.5-11.6-28.8-11.6h-2.4h-4.3h-6.7h-34.9h-6.7h-6.7
	c-12.2,0-21.4,3.7-28.8,11.6c-3.7,4.3-6.7,9.2-8,14.7l0,0L-184,743v0.6c-1.8,6.1-1.8,11-0.6,14.1c1.2,3.1,4.9,5.5,10.4,7.3l11.6,3.7
	l5.5-17.7l0,0l4.3-15.3l3.1-9.2l17.7-59.4h11l-47.1,157.3l0,0c12.9,2.4,27.5,4.3,44.7,5.5v83.2V926v25.1c0,3.1,0.6,5.5,2.4,6.7
	c1.8,1.8,3.7,2.4,6.7,2.4h6.7h6.7c3.1,0,4.9-0.6,6.7-2.4c1.8-1.8,2.4-4.3,2.4-6.7V926v-12.9v-82c1.8,0,3.7,0,5.5,0
	c1.8,0,3.7,0,5.5,0v82V926v25.1c0,3.1,0.6,5.5,2.4,6.7c1.8,1.8,3.7,2.4,6.7,2.4h6.7h6.7c3.1,0,4.9-0.6,6.7-2.4
	c1.8-1.8,2.4-4.3,2.4-6.7V926v-12.9v-83.2c16.5-1.2,31.2-3.1,44.7-5.5l-47.1-157.3h11l17.7,59.4l3.1,9.2l4.3,15.3l0,0l5.5,17.7
	L2,765c5.5-1.8,8.6-4.3,10.4-7.3C10.6,754.6,10.6,749.7,8.8,743.6z"/>
<path d="M77.3,667.7V546.5c-4.3-0.6-9.8-1.2-15.9-1.2s-11.6,0.6-15.9,1.2v224l0,0v186.7c4.3,0.6,9.8,1.2,15.9,1.2s11.6-0.6,15.9-1.2
	V667.7L77.3,667.7z"/>
</svg>
