<?xml version="1.0" encoding="utf-8"?>
<!-- Generator: Adobe Illustrator 18.1.1, SVG Export Plug-In . SVG Version: 6.00 Build 0)  -->
<svg version="1.1" id="Layer_1" xmlns="http://www.w3.org/2000/svg" xmlns:xlink="http://www.w3.org/1999/xlink" x="0px" y="0px"
	 viewBox="-218.2 534.6 481.9 483.4" enable-background="new -218.2 534.6 481.9 483.4" xml:space="preserve">
<path d="M258,633.6c0-3.8-3.8-7.6-7.6-7.6c-3.8,0-5.7-1.9-5.7-5.7c0-3.8-3.8-5.7-7.6-5.7l-24.9,3.8c-5.7-28.7-11.5-47.8-23-59.3
	c-32.5-32.5-296.4-32.5-330.9,0c-11.5,11.5-19.1,28.7-23,59.3l-24.9-3.8c-3.8,0-7.6,1.9-7.6,5.7c0,3.8-1.9,5.7-5.7,5.7
	c-3.8,0-5.7,3.8-7.6,7.6l-7.6,84.1c0,3.8,3.8,7.6,7.6,7.6h17.2c3.8,0,7.6-3.8,9.6-7.6l5.7-70.8c0-3.8,3.8-7.6,9.6-7.6l0,0
	c-5.7,61.2-7.6,361.5-7.6,361.5c0,9.6,1.9,17.2,5.7,17.2h42.1c1.9,0,5.7-7.6,5.7-17.2v-30.6c76.5,11.5,214.2,11.5,290.7,0v30.6
	c0,9.6,1.9,17.2,5.7,17.2h42.1c1.9,0,5.7-7.6,5.7-17.2c0,0,0-302.2-7.6-361.5l0,0c3.8,0,7.6,1.9,9.6,7.6l5.7,70.8
	c0,3.8,3.8,7.6,9.6,7.6h17.2c3.8,0,7.6-3.8,7.6-7.6L258,633.6z M-122.6,899.4c-17.2,0-30.6-13.4-30.6-30.6s13.4-30.6,30.6-30.6
	S-92,851.6-92,868.8C-92,886-105.4,899.4-122.6,899.4z M-157,777c1.9-122.4,7.6-185.5,26.8-204.6c7.6-7.6,63.1-19.1,153-19.1
	c91.8,0,145.4,11.5,153,19.1c21,19.1,24.9,82.2,26.8,204.6c-19.1,7.6-80.3,17.2-181.7,17.2C-76.7,794.2-137.9,784.6-157,777z
	 M141.3,868.8c0-17.2,13.4-30.6,30.6-30.6s30.6,13.4,30.6,30.6s-13.4,30.6-30.6,30.6S141.3,886,141.3,868.8z"/>
</svg>
