<?xml version="1.0" encoding="utf-8"?>
<!-- Generator: Adobe Illustrator 18.1.1, SVG Export Plug-In . SVG Version: 6.00 Build 0)  -->
<svg version="1.1" id="Your_Icon" xmlns="http://www.w3.org/2000/svg" xmlns:xlink="http://www.w3.org/1999/xlink" x="0px" y="0px"
	 viewBox="-150.3 499.4 414.3 471.2" enable-background="new -150.3 499.4 414.3 471.2" xml:space="preserve">
<g>
	<path d="M244.4,556.3h-58.1v-37.9c0-10.4-8.6-19-19-19s-19,8.6-19,19v37.9H-35.3v-37.9c0-10.4-8.6-19-19-19c-10.4,0-19,8.6-19,19
		v37.9h-58.1c-10.4,0-19,8.6-19,19v376.4c0,10.4,8.6,19,19,19H245c10.4,0,19-8.6,19-19V575.3C263.4,564.9,254.8,556.3,244.4,556.3z
		 M225.4,932.7H-113V594.3h39.2v24.5c0,10.4,8.6,19,19,19c10.4,0,19-8.6,19-19v-24.5h183.6v24.5c0,10.4,8.6,19,19,19
		c10.4,0,19-8.6,19-19v-24.5h39.2L225.4,932.7L225.4,932.7z"/>
	<circle cx="-54.9" cy="722.2" r="17.7"/>
	<circle cx="19.2" cy="722.2" r="17.7"/>
	<circle cx="93.2" cy="722.2" r="17.7"/>
	<circle cx="167.3" cy="722.2" r="17.7"/>
	<circle cx="-54.9" cy="787.1" r="17.7"/>
	<circle cx="19.2" cy="787.1" r="17.7"/>
	<circle cx="93.2" cy="787.1" r="17.7"/>
	<circle cx="167.3" cy="787.1" r="17.7"/>
	<circle cx="-54.9" cy="851.3" r="17.7"/>
	<circle cx="19.2" cy="851.3" r="17.7"/>
	<circle cx="93.2" cy="851.3" r="17.7"/>
	<circle cx="167.3" cy="851.3" r="17.7"/>
</g>
</svg>
