<?xml version="1.0" encoding="utf-8"?>
<!-- Generator: Adobe Illustrator 18.1.1, SVG Export Plug-In . SVG Version: 6.00 Build 0)  -->
<svg version="1.1" id="Layer_1" xmlns="http://www.w3.org/2000/svg" xmlns:xlink="http://www.w3.org/1999/xlink" x="0px" y="0px"
	 viewBox="-190 517.8 453.5 466.1" enable-background="new -190 517.8 453.5 466.1" xml:space="preserve">
<path d="M-190,517.8v466.1H22V517.8H-190z M-126.4,899h-42.1v-42.1h42.1V899z M-126.4,835.5h-42.1v-42.1h42.1V835.5z M-126.4,771.9
	h-42.1v-42.1h42.1V771.9z M-126.4,708.4h-42.1v-42.1h42.1V708.4z M-126.4,644.9h-42.1v-42.1h42.1V644.9z M-126.4,581.4h-42.1v-42.1
	h42.1V581.4z M-62.9,899H-105v-42.1h42.1V899z M-62.9,835.5H-105v-42.1h42.1V835.5z M-62.9,771.9H-105v-42.1h42.1V771.9z
	 M-62.9,708.4H-105v-42.1h42.1V708.4z M-62.9,644.9H-105v-42.1h42.1V644.9z M-62.9,581.4H-105v-42.1h42.1V581.4z M0.6,899h-42.1
	v-42.1H0.6V899z M0.6,835.5h-42.1v-42.1H0.6V835.5z M0.6,771.9h-42.1v-42.1H0.6V771.9z M0.6,708.4h-42.1v-42.1H0.6V708.4z
	 M0.6,644.9h-42.1v-42.1H0.6V644.9z M0.6,581.4h-42.1v-42.1H0.6V581.4z"/>
<path d="M51.6,644.9v339h212v-339H51.6z M115.1,899H73v-42.1h42.1V899z M115.1,835.5H73v-42.1h42.1V835.5z M115.1,771.9H73v-42.1
	h42.1V771.9z M115.1,708.4H73v-42.1h42.1V708.4z M178.6,899h-42.1v-42.1h42.1V899z M178.6,835.5h-42.1v-42.1h42.1V835.5z
	 M178.6,771.9h-42.1v-42.1h42.1V771.9z M178.6,708.4h-42.1v-42.1h42.1V708.4z M242.2,899H200v-42.1h42.1
	C242.2,856.8,242.2,899,242.2,899z M242.2,835.5H200v-42.1h42.1V835.5z M242.2,771.9H200v-42.1h42.1V771.9z M242.2,708.4H200v-42.1
	h42.1V708.4z"/>
</svg>
