<?xml version="1.0" encoding="utf-8"?>
<!-- Generator: Adobe Illustrator 18.1.1, SVG Export Plug-In . SVG Version: 6.00 Build 0)  -->
<svg version="1.1" id="Calque_1" xmlns="http://www.w3.org/2000/svg" xmlns:xlink="http://www.w3.org/1999/xlink" x="0px" y="0px"
	 viewBox="-165.6 502.5 457.2 457.2" enable-background="new -165.6 502.5 457.2 457.2" xml:space="preserve">
<path d="M56.5,882.5c-40.4,40.4-105.3,40.4-145,0c-40.4-40.4-40.4-105.3,0-145"/>
<path d="M95.7,894.2c7.3-7.3,7.3-20.2,0-27.5L-72.6,698.3c-7.3-7.3-20.2-7.3-27.5,0l0,0c-7.3,7.3-7.3,20.2,0,27.5L68.1,894.2
	C75.5,902.1,87.7,902.1,95.7,894.2L95.7,894.2z"/>
<path d="M69.4,579c40.4-40.4,105.3-40.4,145,0c40.4,40.4,40.4,105.3,0,145"/>
<path d="M30.2,568c-7.3,7.3-7.3,20.2,0,27.5l168.3,168.3c7.3,7.3,20.2,7.3,27.5,0l0,0c7.3-7.3,7.3-20.2,0-27.5L57.7,568
	C50.4,560,38.1,560,30.2,568L30.2,568z"/>
<path d="M17.3,673.8c7.3-7.3,20.2-7.3,27.5,0l0,0c7.3,7.3,7.3,20.2,0,27.5l-47.1,47.1L-29.8,721L17.3,673.8z"/>
<path d="M92.6,749.1c7.3-7.3,20.2-7.3,27.5,0l0,0c7.3,7.3,7.3,20.2,0,27.5L73,823.8l-27.5-27.5L92.6,749.1z"/>
<path d="M258.5,508c7.3-7.3,20.2-7.3,27.5,0l0,0c7.3,7.3,7.3,20.2,0,27.5l-67.9,67.9l-27.5-27.5L258.5,508z"/>
<path d="M-132.6,954.1c-7.3,7.3-20.2,7.3-27.5,0l0,0c-7.3-7.3-7.3-20.2,0-27.5l67.9-67.9l27.5,27.5L-132.6,954.1z"/>
</svg>
