<?xml version="1.0" encoding="utf-8"?>
<!-- Generator: Adobe Illustrator 18.1.1, SVG Export Plug-In . SVG Version: 6.00 Build 0)  -->
<svg version="1.1" id="Your_Icon" xmlns="http://www.w3.org/2000/svg" xmlns:xlink="http://www.w3.org/1999/xlink" x="0px" y="0px"
	 viewBox="-124.6 506.8 350.7 448.6" enable-background="new -124.6 506.8 350.7 448.6" xml:space="preserve">
<g>
	<path d="M-68.3,506.8c14.1,0,28.8,121.8,45.9,206.9h186.7c12.2,0,21.4,9.2,21.4,20.2s-9.8,20.2-21.4,20.2H-13.9
		c6.1,25.1,12.9,41,19.6,40.4c53.2-6.1,203.8-17.7,217.3-5.5c12.9,12.2-18.4,86.3-18.4,86.3h-112v49c0,1.2,0,1.8-0.6,3.1h90
		c8.6,0,15.3,6.7,15.3,14.1c0,8-6.7,14.1-15.3,14.1H-40.8c-8.6,0-15.3-6.7-15.3-14.1c0-8,6.7-14.1,15.3-14.1h90
		c0-1.2-0.6-1.8-0.6-3.1v-49H-57.3l-62.4-253.4c0,0-19.6-115.1,19.6-115.1"/>
</g>
</svg>
