<?xml version="1.0" encoding="utf-8"?>
<!-- Generator: Adobe Illustrator 18.1.1, SVG Export Plug-In . SVG Version: 6.00 Build 0)  -->
<svg version="1.1" id="Layer_1" xmlns="http://www.w3.org/2000/svg" xmlns:xlink="http://www.w3.org/1999/xlink" x="0px" y="0px"
	 viewBox="53.5 67.1 504.9 504.9" enable-background="new 53.5 67.1 504.9 504.9" xml:space="preserve">
<path d="M380.1,73.9c0.1-0.1,0.2-0.1,0.3-0.2l-4.8-4.8L61.2,383.4l4.7,4.7c1.3-1.3,3.3-1.3,4.6,0s1.3,3.3,0,4.6l4.6,4.6
	c1.3-1.3,3.3-1.3,4.6,0c1.3,1.3,1.3,3.3,0,4.6l4.6,4.6c1.3-1.3,3.3-1.3,4.6,0c1.3,1.3,1.3,3.3,0,4.6l4.6,4.6c1.3-1.3,3.3-1.3,4.6,0
	c1.3,1.3,1.3,3.3,0,4.6l4.6,4.6c1.3-1.3,3.3-1.3,4.6,0c1.3,1.3,1.3,3.3,0,4.6l4.6,4.6c1.3-1.3,3.3-1.3,4.6,0c1.3,1.3,1.3,3.3,0,4.6
	l4.6,4.6c15.1-15.1,39.5-15.1,54.6,0s15.1,39.5,0,54.6l4.6,4.6c1.3-1.3,3.3-1.3,4.6,0c1.3,1.3,1.3,3.3,0,4.6l4.6,4.6
	c1.3-1.3,3.3-1.3,4.6,0c1.3,1.3,1.3,3.3,0,4.6l4.6,4.6c1.3-1.3,3.3-1.3,4.6,0c1.3,1.3,1.3,3.3,0,4.6l4.6,4.6c1.3-1.3,3.3-1.3,4.6,0
	s1.3,3.3,0,4.6l4.6,4.6c1.3-1.3,3.3-1.3,4.6,0c1.3,1.3,1.3,3.3,0,4.6l4.6,4.6c1.3-1.3,3.3-1.3,4.6,0s1.3,3.3,0,4.6l4.7,4.7
	l314.5-314.5l-4.8-4.8c-0.1,0.1-0.1,0.2-0.2,0.3c-1.3,1.3-3.3,1.3-4.6,0c-1.3-1.3-1.3-3.3,0-4.6c0.1-0.1,0.2-0.1,0.3-0.2l-4.7-4.7
	c-0.1,0.1-0.1,0.2-0.2,0.3c-1.3,1.3-3.3,1.3-4.6,0c-1.3-1.3-1.3-3.3,0-4.6c0.1-0.1,0.2-0.1,0.3-0.2l-4.7-4.7
	c-0.1,0.1-0.1,0.2-0.2,0.3c-1.3,1.3-3.3,1.3-4.6,0c-1.3-1.3-1.3-3.3,0-4.6c0.1-0.1,0.2-0.1,0.3-0.2l-4.7-4.7
	c-0.1,0.1-0.1,0.2-0.2,0.3c-1.3,1.3-3.3,1.3-4.6,0c-1.3-1.3-1.3-3.3,0-4.6c0.1-0.1,0.2-0.1,0.3-0.2l-4.7-4.7
	c-0.1,0.1-0.1,0.2-0.2,0.3c-1.3,1.3-3.3,1.3-4.6,0c-1.3-1.3-1.3-3.3,0-4.6c0.1-0.1,0.2-0.1,0.3-0.2l-4.7-4.7
	c-0.1,0.1-0.1,0.2-0.2,0.3c-1.3,1.3-3.3,1.3-4.6,0c-1.3-1.3-1.3-3.3,0-4.6c0.1-0.1,0.2-0.1,0.3-0.2l-4.7-4.7
	c-15.1,15.1-39.5,15.1-54.6,0c-15.1-15.1-15.1-39.5,0-54.6l-4.7-4.7c-0.1,0.1-0.1,0.2-0.2,0.3c-1.3,1.3-3.3,1.3-4.6,0
	c-1.3-1.3-1.3-3.3,0-4.6c0.1-0.1,0.2-0.1,0.3-0.2l-4.7-4.7c-0.1,0.1-0.1,0.2-0.2,0.3c-1.3,1.3-3.3,1.3-4.6,0c-1.3-1.3-1.3-3.3,0-4.6
	c0.1-0.1,0.2-0.1,0.3-0.2l-4.7-4.7c-0.1,0.1-0.1,0.2-0.2,0.3c-1.3,1.3-3.3,1.3-4.6,0c-1.3-1.3-1.3-3.3,0-4.6
	c0.1-0.1,0.2-0.1,0.3-0.2l-4.7-4.7c-0.1,0.1-0.1,0.2-0.2,0.3c-1.3,1.3-3.3,1.3-4.6,0c-1.3-1.3-1.3-3.3,0-4.6
	c0.1-0.1,0.2-0.1,0.3-0.2l-4.7-4.7c-0.1,0.1-0.1,0.2-0.2,0.3c-1.3,1.3-3.3,1.3-4.6,0c-1.3-1.3-1.3-3.3,0-4.6
	c0.1-0.1,0.2-0.1,0.3-0.2l-4.7-4.7c-0.1,0.1-0.1,0.2-0.2,0.3c-1.3,1.3-3.3,1.3-4.6,0C378.8,77.2,378.8,75.1,380.1,73.9z M132,373.6
	l1.3-1.3l7.8,7.8l-1.3,1.3L132,373.6z M143.7,385.3l1.3-1.3l7.8,7.8l-1.3,1.3L143.7,385.3z M155.5,397.1l1.3-1.3l7.8,7.8l-1.3,1.3
	L155.5,397.1z M167.3,408.9l1.3-1.3l7.8,7.8l-1.3,1.3L167.3,408.9z M179,420.6l1.3-1.3l7.8,7.8l-1.3,1.3L179,420.6z M190.8,432.4
	l1.3-1.3l7.8,7.8l-1.3,1.3L190.8,432.4z M202.6,444.1l1.3-1.3l7.8,7.8l-1.3,1.3L202.6,444.1z M214.3,455.9l1.3-1.3l7.8,7.8l-1.3,1.3
	L214.3,455.9z M226.1,467.7l1.3-1.3l7.8,7.8l-1.3,1.3L226.1,467.7z M237.8,479.4l1.3-1.3l7.8,7.8l-1.3,1.3L237.8,479.4z
	 M258.6,491.2l-4.5,4.5l-4.5-4.5l1.3-1.3l3.1,3.1l3.1-3.1L258.6,491.2z M129.4,362l-3.1,3.1l3.1,3.1l-1.3,1.3l-4.5-4.5l4.5-4.5
	L129.4,362z M270.2,479.6l-7.8,7.8l-1.3-1.3l7.8-7.8L270.2,479.6z M141,350.4l-7.8,7.8l-1.3-1.3l7.8-7.8L141,350.4z M281.8,467.9
	l-7.8,7.8l-1.3-1.3l7.8-7.8L281.8,467.9z M152.7,338.8l-7.8,7.8l-1.3-1.3l7.8-7.8L152.7,338.8z M293.5,456.3l-7.8,7.8l-1.3-1.3
	l7.8-7.8L293.5,456.3z M164.3,327.1l-7.8,7.8l-1.3-1.3l7.8-7.8L164.3,327.1z M305.1,444.7l-7.8,7.8l-1.3-1.3l7.8-7.8L305.1,444.7z
	 M175.9,315.5l-7.8,7.8l-1.3-1.3l7.8-7.8L175.9,315.5z M316.7,433l-7.8,7.8l-1.3-1.3l7.8-7.8L316.7,433z M187.6,303.9l-7.8,7.8
	l-1.3-1.3l7.8-7.8L187.6,303.9z M328.4,421.4l-7.8,7.8l-1.3-1.3l7.8-7.8L328.4,421.4z M199.2,292.2l-7.8,7.8l-1.3-1.3l7.8-7.8
	L199.2,292.2z M340,409.8l-7.8,7.8l-1.3-1.3l7.8-7.8L340,409.8z M210.8,280.6l-7.8,7.8l-1.3-1.3l7.8-7.8L210.8,280.6z M351.6,398.1
	l-7.8,7.8l-1.3-1.3l7.8-7.8L351.6,398.1z M222.5,269l-7.8,7.8l-1.3-1.3l7.8-7.8L222.5,269z M363.3,386.5l-7.8,7.8l-1.3-1.3l7.8-7.8
	L363.3,386.5z M234.1,257.3l-7.8,7.8l-1.3-1.3l7.8-7.8L234.1,257.3z M374.9,374.9l-7.8,7.8l-1.3-1.3l7.8-7.8L374.9,374.9z
	 M245.7,245.7l-7.8,7.8l-1.3-1.3l7.8-7.8L245.7,245.7z M386.5,363.2l-7.8,7.8l-1.3-1.3l7.8-7.8L386.5,363.2z M257.3,234.1l-7.8,7.8
	l-1.3-1.3l7.8-7.8L257.3,234.1z M398.2,351.6l-7.8,7.8l-1.3-1.3l7.8-7.8L398.2,351.6z M269,222.4l-7.8,7.8l-1.3-1.3l7.8-7.8
	L269,222.4z M409.8,340l-7.8,7.8l-1.3-1.3l7.8-7.8L409.8,340z M280.6,210.8l-7.8,7.8l-1.3-1.3l7.8-7.8L280.6,210.8z M421.4,328.3
	l-7.8,7.8l-1.3-1.3l7.8-7.8L421.4,328.3z M292.2,199.2l-7.8,7.8l-1.3-1.3l7.8-7.8L292.2,199.2z M433,316.7l-7.8,7.8l-1.3-1.3
	l7.8-7.8L433,316.7z M303.9,187.5l-7.8,7.8l-1.3-1.3l7.8-7.8L303.9,187.5z M444.7,305.1l-7.8,7.8l-1.3-1.3l7.8-7.8L444.7,305.1z
	 M315.5,175.9l-7.8,7.8l-1.3-1.3l7.8-7.8L315.5,175.9z M456.3,293.5l-7.8,7.8l-1.3-1.3l7.8-7.8L456.3,293.5z M327.1,164.3l-7.8,7.8
	l-1.3-1.3l7.8-7.8L327.1,164.3z M467.9,281.8l-7.8,7.8l-1.3-1.3l7.8-7.8L467.9,281.8z M338.8,152.6l-7.8,7.8l-1.3-1.3l7.8-7.8
	L338.8,152.6z M479.6,270.2l-7.8,7.8l-1.3-1.3l7.8-7.8L479.6,270.2z M350.4,141l-7.8,7.8l-1.3-1.3l7.8-7.8L350.4,141z M487.9,261.8
	l-4.5,4.5l-1.3-1.3l3.1-3.1l-3.1-3.1l1.3-1.3L487.9,261.8L487.9,261.8z M479.5,253.4l-1.3,1.3l-7.8-7.8l1.3-1.3L479.5,253.4z
	 M467.8,241.7l-1.3,1.3l-7.8-7.8l1.3-1.3L467.8,241.7z M456,229.9l-1.3,1.3l-7.8-7.8l1.3-1.3L456,229.9z M444.2,218.1l-1.3,1.3
	l-7.8-7.8l1.3-1.3L444.2,218.1z M432.5,206.4l-1.3,1.3l-7.8-7.8l1.3-1.3L432.5,206.4z M420.7,194.6l-1.3,1.3l-7.8-7.8l1.3-1.3
	L420.7,194.6z M409,182.9l-1.3,1.3l-7.8-7.8l1.3-1.3L409,182.9z M397.2,171.1l-1.3,1.3l-7.8-7.8l1.3-1.3L397.2,171.1z M385.4,159.3
	l-1.3,1.3l-7.8-7.8l1.3-1.3L385.4,159.3z M373.7,147.6l-1.3,1.3l-7.8-7.8l1.3-1.3L373.7,147.6z M361.9,135.8l-1.3,1.3l-3.1-3.1
	l-3.1,3.1l-1.3-1.3l4.5-4.5L361.9,135.8z"/>
</svg>
