<?xml version="1.0" encoding="utf-8"?>
<!-- Generator: Adobe Illustrator 18.1.1, SVG Export Plug-In . SVG Version: 6.00 Build 0)  -->
<svg version="1.1" id="Layer_1" xmlns="http://www.w3.org/2000/svg" xmlns:xlink="http://www.w3.org/1999/xlink" x="0px" y="0px"
	 viewBox="97.2 94.7 612 612" enable-background="new 97.2 94.7 612 612" xml:space="preserve">
<g>
	<g>
		<path d="M403.2,128.9c149.7,0,271.8,121.3,271.8,271.8S553.7,672.5,403.2,672.5c-149.7,0-271.8-121.3-271.8-271.8
			S252.7,128.9,403.2,128.9 M403.2,94.7c-81.4,0-158.7,31.8-216.5,89.5S97.2,319.3,97.2,400.7s31.8,158.7,89.5,216.5
			s135.1,89.5,216.5,89.5s158.7-31.8,216.5-89.5s89.5-135.1,89.5-216.5S677.5,242,619.7,184.2S484.6,94.7,403.2,94.7L403.2,94.7z"/>
	</g>
</g>
<g>
	<path d="M498.4,514.9c-0.7,0-1.3-0.3-1.9-0.8l-96-96V203c0-1.5,1.2-2.7,2.7-2.7c1.5,0,2.7,1.2,2.7,2.7v212.9l94.4,94.4
		c1.1,1.1,1.1,2.7,0,3.7C499.7,514.7,499.1,514.9,498.4,514.9z"/>
</g>
<g>
	<path d="M495,518.8c-0.7,0-1.3-0.3-1.9-0.8l-98.3-97.1V203.5c0-1.5,1.2-2.7,2.7-2.7s2.7,1.2,2.7,2.7v215.3l96.7,95.5
		c1.1,1.1,1.1,2.8,0,3.9C496.4,518.5,495.6,518.8,495,518.8z"/>
</g>
<g>
	<path d="M490.2,522.1c-0.7,0-1.5-0.3-2-0.8l-99.2-98V203.5c0-1.5,1.2-2.7,2.8-2.7c1.6,0,2.8,1.2,2.8,2.7V421l97.6,96.4
		c1.1,1.1,1.1,2.8,0,3.9C491.5,521.8,490.8,522.1,490.2,522.1z"/>
</g>
<g>
	<path d="M485.1,519.3c-0.7,0-1.3-0.3-1.9-0.8L386,421.3V203.2c0-1.5,1.2-2.7,2.7-2.7s2.7,1.2,2.7,2.7v215.8l95.7,95.7
		c1.1,1.1,1.1,2.8,0,3.9C486.4,519.1,485.8,519.3,485.1,519.3z"/>
</g>
<g>
	<path d="M481.5,523.3c-0.7,0-1.5-0.3-2-0.8l-99.5-98.3V203.7c0-1.5,1.2-2.7,2.8-2.7s2.8,1.2,2.8,2.7v218.1l97.9,96.7
		c1.1,1.1,1.1,2.8,0,3.9C483,523,482.2,523.3,481.5,523.3z"/>
</g>
<g>
	<path d="M476.6,526.6c-0.7,0-1.5-0.3-2-0.8l-100.5-99.3V203.9c0-1.5,1.2-2.8,2.8-2.8c1.6,0,2.8,1.2,2.8,2.8v220.4l98.9,97.7
		c1.1,1.1,1.1,2.8,0,3.9C478.1,526.4,477.4,526.6,476.6,526.6z"/>
</g>
</svg>
