<?xml version="1.0" encoding="utf-8"?>
<!-- Generator: Adobe Illustrator 18.1.1, SVG Export Plug-In . SVG Version: 6.00 Build 0)  -->
<svg version="1.1" id="Layer_1" xmlns="http://www.w3.org/2000/svg" xmlns:xlink="http://www.w3.org/1999/xlink" x="0px" y="0px"
	 viewBox="-194.7 575.9 503.8 357.4" enable-background="new -194.7 575.9 503.8 357.4" xml:space="preserve">
<g>
	<path d="M57.1,838.5c-22,0-42.8,8.6-58.8,24.5c-4.3,4.3-4.3,11.6,0,16.5l50.2,50.2c2.4,2.4,4.9,3.7,8,3.7s6.1-1.2,8-3.7l50.2-50.2
		c2.4-2.4,3.7-4.9,3.7-8s-1.2-6.1-3.7-8C100,847,79.2,838.5,57.1,838.5z"/>
	<path d="M-69,794.4c-11,11-11,28.8,0,39.2c11,11,28.8,11,39.2,0c47.7-47.7,125.5-47.7,173.2,0c5.5,5.5,12.9,8,19.6,8
		c7.3,0,14.1-2.4,19.6-8c11-11,11-28.8,0-39.2C113.4,725.3,0.8,725.3-69,794.4z"/>
	<path d="M-128.3,735c-11,11-11,28.8,0,39.2c11,11,28.8,11,39.2,0c80.8-80.8,211.8-80.8,292.5,0c5.5,5.5,12.9,8,19.6,8
		c7.3,0,14.1-2.4,19.6-8c11-11,11-28.8,0-39.2C140.4,632.8-26.1,632.8-128.3,735z"/>
	<path d="M301.3,676.9c-134.6-134.6-353.1-134.6-487.8,0c-11,11-11,28.8,0,39.2c11,11,28.8,11,39.2,0
		c112.6-112.6,296.2-112.6,408.8,0c5.5,5.5,12.9,8,19.6,8c7.3,0,14.1-2.4,19.6-8C311.7,705.1,311.7,687.3,301.3,676.9z"/>
</g>
</svg>
